# xmcd
#
# Track frame offsets:
#	150
#	13816
#	27531
#	41877
#	57504
#	73292
#	94165
#	111437
#	125124
#	139624
#	153279
#	166801
#	181013
#	197407
#	211067
#	226810
#	245634
#	261838
#	275155
#	290904
#	307050
#
# Disc length: 4272 seconds
#
# Revision: 1
# Processed by: cddbd v1.5.2PL0 Copyright (c) Steve Scherf et al.
# Submitted via: dBpowerAMP V4.0
#
DISCID=4610ae15
DTITLE=Various Artist - MMHott Country Volume 233 Canada
DYEAR=2015
DGENRE=Country
TTITLE0=Kenny Chesney - Save It For a Rainy Day
TTITLE1=Andy Grammer Duet With Eli Young Band - Honey I'm Good
TTITLE2=Blackjack Billy - Why God Made Summertime
TTITLE3=Dean Brody - Bring Down The House
TTITLE4=A Thousand Horses - (This Ain't No) Drunk Dial
TTITLE5=Alan Jackson - Jim And Jack And Hank
TTITLE6=Miranda Lambert ft. Little Big Town - Smokin' And Drinkin'
TTITLE7=Kelsea Ballerini - Dibs
TTITLE8=Dallas Smith - Cheap Seats
TTITLE9=Parmalee - Already Callin' You Mine
TTITLE10=High Valley - She's With Me
TTITLE11=David Nail - Night's On Fire
TTITLE12=Cam - Burning House
TTITLE13=MacKenzie Porter - Rodeo
TTITLE14=Brett Kissel - Airwaves
TTITLE15=Dierks Bentley - Riser
TTITLE16=Ashley Clark - Greyhound
TTITLE17=Jennifer Nettles - Sugar
TTITLE18=Tyler Farr - Withdrawals
TTITLE19=Clare Dunn - Move on
TTITLE20=Easton Corbin - Yup
EXTD=
EXTT0=
EXTT1=
EXTT2=
EXTT3=
EXTT4=
EXTT5=
EXTT6=
EXTT7=
EXTT8=
EXTT9=
EXTT10=
EXTT11=
EXTT12=
EXTT13=
EXTT14=
EXTT15=
EXTT16=
EXTT17=
EXTT18=
EXTT19=
EXTT20=
PLAYORDER=
